<svg xmlns="http://www.w3.org/2000/svg" xmlns:xlink="http://www.w3.org/1999/xlink" width="28" height="24" viewBox="0 0 28 24">
    <defs>
        <path id="81bhwjokta" d="M0 0L27.12 0 27.12 23.286 0 23.286z"/>
    </defs>
    <g fill="none" fill-rule="evenodd">
        <g>
            <g transform="translate(-314 -163) translate(314 163)">
                <mask id="zma165h4wb" fill="#fff">
                    <use xlink:href="#81bhwjokta"/>
                </mask>
                <path fill="#35E5C3" d="M22.334 15.192c1.04 0 2.081-.006 3.122.004.241.002.33-.084.328-.324-.006-1.022-.007-2.046.002-3.068.001-.25-.083-.344-.34-.343-2.072.008-4.144.008-6.217 0-.252 0-.34.084-.337.338.011 1.005.004 2.01.005 3.016 0 .365.011.376.367.377h3.07zM20.163 3.38V2.185c0-.652-.195-.847-.856-.847H2.575c-.14 0-.284.005-.422.029-.525.09-.898.637-.8 1.16.102.545.508.853 1.134.853h17.676zM1.332 4.58c0-.007-.005.046-.005.098v16.523c.001.519.23.733.78.733h19.832c1.055-.001 1.68-.63 1.681-1.681.002-1.138 0-2.277 0-3.416v-.314h-.31c-1.385 0-2.771.004-4.157-.002-.919-.004-1.547-.545-1.584-1.458-.045-1.155-.013-2.312-.009-3.468 0-.121.025-.246.058-.364.204-.71.778-1.107 1.609-1.11 1.359-.002 2.718 0 4.077 0h.31c0-1.351.007-2.657-.007-3.962-.003-.203-.074-.422-.168-.605-.322-.627-.876-.846-1.555-.845-6.382.002-12.763.004-19.145-.004-.46 0-.92-.08-1.407-.125zM0 21.6V2.108c.015-.049.035-.098.044-.148C.144 1.38.426.908.88.534 1.37.132 1.94 0 2.557 0h16.84c.846 0 1.525.32 1.888 1.109.14.3.178.66.205.997.034.417.008.838.008 1.275h.429c1.803.002 3.022 1.22 3.024 3.023v3.718c.212 0 .388-.004.563.001.978.028 1.6.656 1.603 1.627.004 1.059.005 2.118 0 3.177-.005.96-.63 1.583-1.595 1.596-.182.003-.364 0-.566 0v.326c0 1.14 0 2.278-.002 3.416 0 .194 0 .39-.033.58-.248 1.46-1.408 2.43-2.92 2.438-1.394.007-2.79.001-4.184.001H2.142c-.565.001-1.08-.127-1.512-.518C.281 22.449.114 22.04 0 21.6z" mask="url(#zma165h4wb)"/>
            </g>
        </g>
    </g>
</svg>
