<svg xmlns="http://www.w3.org/2000/svg" xmlns:xlink="http://www.w3.org/1999/xlink" width="58" height="49" viewBox="0 0 58 49">
    <defs>
        <path id="rv7ml5ffta" d="M0 48.264L57.877 48.264 57.877 0 0 0z"/>
    </defs>
    <g fill="none" fill-rule="evenodd">
        <g>
            <g transform="translate(-535 -3586) translate(535 3586)">
                <path stroke="#35E5C3" stroke-width="1.366" d="M10.38 42.508h31.634c5.355 0 9.696-4.34 9.696-9.696V10.38c0-5.355-4.341-9.696-9.696-9.696H10.379C5.024.683.683 5.024.683 10.38v22.433c0 5.355 4.341 9.696 9.696 9.696z"/>
                <path fill="#FFF" d="M15.267 46.985h31.635c5.355 0 9.696-4.34 9.696-9.696V14.856c0-5.355-4.341-9.696-9.696-9.696H15.267c-5.355 0-9.696 4.341-9.696 9.696V37.29c0 5.355 4.341 9.696 9.696 9.696"/>
                <path stroke="#2D7DF8" stroke-width="2.558" d="M15.267 46.985h31.635c5.355 0 9.696-4.34 9.696-9.696V14.856c0-5.355-4.341-9.696-9.696-9.696H15.267c-5.355 0-9.696 4.341-9.696 9.696V37.29c0 5.355 4.341 9.696 9.696 9.696z"/>
                <mask id="wc9qgilfgb" fill="#fff">
                    <use xlink:href="#rv7ml5ffta"/>
                </mask>
                <path fill="#2D7DF8" d="M14.009 27.091L25.25 27.091 25.25 14.753 14.009 14.753zM35.199 27.091L46.438 27.091 46.438 14.753 35.199 14.753z" mask="url(#wc9qgilfgb)"/>
                <path fill="#2D7DF8" d="M31.503 16.701L46.438 16.701 46.438 14.753 31.503 14.753zM14.009 34.883L46.438 34.883 46.438 32.935 14.009 32.935z" mask="url(#wc9qgilfgb)"/>
            </g>
        </g>
    </g>
</svg>
