<svg xmlns="http://www.w3.org/2000/svg" xmlns:xlink="http://www.w3.org/1999/xlink" width="228" height="41" viewBox="0 0 228 41">
    <defs>
        <path id="srmskunpha" d="M0 40L227 40 227 0 0 0z"/>
    </defs>
    <g fill="none" fill-rule="evenodd" transform="translate(1 1)">
        <path stroke="#35E5C3" d="M8.171 36H34.83C39.342 36 43 32.263 43 27.654V8.344C43 3.738 39.342 0 34.829 0H8.17C3.658 0 0 3.737 0 8.345v19.309C0 32.264 3.658 36 8.171 36z"/>
        <path fill="#2D7DF8" d="M95 9L86.133 36 83.202 36 75.499 12.973 67.76 36 64.866 36 56 9 58.856 9 66.445 32.22 74.298 9 76.89 9 84.63 32.336 92.333 9zM113.844 26.473l-6.363-14.504-6.362 14.504h12.725zm1.022 2.314h-14.769L96.917 36H94l12.118-27h2.765L121 36h-2.953l-3.181-7.213zM148 9L148 36 145.81 36 129.656 14.092 129.656 36 127 36 127 9 129.189 9 145.379 30.91 145.379 9zM159.617 16.059L152 16.059 152 9 176 9 176 16.059 168.385 16.059 168.385 36 159.617 36zM200 29.135L200 36 179 36 179 9 199.531 9 199.531 15.865 187.371 15.865 187.371 19.028 198.051 19.028 198.051 25.586 187.371 25.586 187.371 29.135zM227 28.941L227 36 203 36 203 30.408 214.944 16.059 203.374 16.059 203.374 9 226.403 9 226.403 14.592 214.46 28.941z"/>
        <path fill="#FFF" d="M13.171 39H39.83C44.342 39 48 35.263 48 30.654v-19.31C48 6.738 44.342 3 39.829 3H13.17C8.658 3 5 6.737 5 11.345v19.309C5 35.264 8.658 39 13.171 39"/>
        <path stroke="#2D7DF8" stroke-width="1.873" d="M13.171 39H39.83C44.342 39 48 35.263 48 30.654v-19.31C48 6.738 44.342 3 39.829 3H13.17C8.658 3 5 6.737 5 11.345v19.309C5 35.264 8.658 39 13.171 39z"/>
        <mask id="l7lj3oby7b" fill="#fff">
            <use xlink:href="#srmskunpha"/>
        </mask>
        <path fill="#2D7DF8" d="M11 22L21 22 21 11 11 11zM29 22L39 22 39 11 29 11z" mask="url(#l7lj3oby7b)"/>
        <path fill="#2D7DF8" d="M27 13L39 13 39 11 27 11zM11 29L39 29 39 27 11 27z" mask="url(#l7lj3oby7b)"/>
    </g>
</svg>
