<svg xmlns="http://www.w3.org/2000/svg" xmlns:xlink="http://www.w3.org/1999/xlink" width="21" height="19" viewBox="0 0 21 19">
    <defs>
        <path id="99dy9xiboa" d="M0 0.276L20.496 0.276 20.496 18 0 18z"/>
    </defs>
    <g fill="none" fill-rule="evenodd">
        <g>
            <g>
                <g transform="translate(-242 -583) translate(242 583) translate(0 .084)">
                    <mask id="lnvpr5xi7b" fill="#fff">
                        <use xlink:href="#99dy9xiboa"/>
                    </mask>
                    <path fill="#2D7DF8" d="M19.124 3.677c0-.608.004-1.206-.003-1.804-.001-.135-.09-.218-.236-.22-.08-.002-.16-.004-.24-.004l-11.5.002-5.4-.002c-.33 0-.379.049-.379.385l.003.96v.683h17.755zm.006 1.396H1.37v.278l-.004 10.884c0 .346.048.395.39.394 1.774 0 3.548-.003 5.322-.002l11.644.002c.359 0 .406-.047.406-.4l.002-8.723V5.073zM10.228 18H1.724c-.833 0-1.44-.421-1.656-1.174-.054-.188-.065-.395-.065-.593C0 11.804.002 7.376.003 2.947c0-.327-.004-.654-.003-.98C.004.964.682.28 1.682.278 3.443.276 5.204.28 6.965.28l6.783-.003c1.66 0 3.321.003 4.982-.002.572-.002 1.061.165 1.427.624.244.306.336.662.336 1.045.002 2.154.003 4.308.003 6.463 0 2.628-.003 5.256-.002 7.884 0 .695-.268 1.24-.911 1.534-.246.112-.539.165-.811.167-1.994.012-3.989.004-5.983.003h-2.561V18z" mask="url(#lnvpr5xi7b)"/>
                </g>
                <path fill="#2D7DF8" d="M8.467 14.993c-.569-.002-.878-.552-.589-1.064.384-.678.78-1.35 1.17-2.025.886-1.536 1.771-3.071 2.655-4.608.128-.22.277-.412.555-.437.292-.027.522.088.684.329.16.237.132.478-.004.716L11.91 9.688c-.944 1.633-1.889 3.265-2.83 4.899-.139.241-.316.41-.613.406M4.51 10.894l1.756 1.756c.132.132.268.26.393.399.268.293.258.673-.018.949-.269.269-.65.294-.932.022-.625-.602-1.232-1.22-1.846-1.832-.25-.25-.502-.498-.75-.75-.34-.347-.34-.727.002-1.073.847-.851 1.695-1.7 2.545-2.548.304-.304.68-.309.976-.023.293.283.293.683-.013.992-.695.7-1.397 1.394-2.113 2.108M15.993 10.904l-1.137-1.131c-.335-.335-.67-.669-1.002-1.006-.186-.19-.268-.414-.179-.676.091-.269.28-.433.558-.488.255-.052.451.063.624.237.778.778 1.54 1.572 2.339 2.328.583.551.55.948.002 1.465-.8.755-1.56 1.552-2.34 2.328-.327.326-.725.329-1.02.017-.276-.29-.264-.666.043-.976.455-.46.914-.915 1.373-1.371.24-.24.483-.475.74-.727M4.527 3.26c-.27.004-.514-.23-.521-.5-.008-.266.25-.526.522-.527.265 0 .508.245.51.514 0 .266-.24.508-.51.512M2.87 3.26c-.271-.004-.508-.245-.505-.515.002-.273.239-.511.508-.512.274 0 .528.257.52.527-.006.267-.254.503-.523.5M6.167 3.262c-.271-.002-.512-.24-.513-.509 0-.266.243-.512.51-.515.276-.003.528.248.522.521-.006.27-.247.504-.519.503" transform="translate(-242 -583) translate(242 583)"/>
            </g>
        </g>
    </g>
</svg>
