<svg xmlns="http://www.w3.org/2000/svg" xmlns:xlink="http://www.w3.org/1999/xlink" width="25" height="14" viewBox="0 0 25 14">
    <defs>
        <path id="d7tv9jplca" d="M0.073 0.191L8.718 0.191 8.718 14 0.073 14z"/>
    </defs>
    <g fill="none" fill-rule="evenodd">
        <g>
            <g>
                <g transform="translate(-393 -585) translate(393 585) translate(8)">
                    <mask id="qga8cfdamb" fill="#fff">
                        <use xlink:href="#d7tv9jplca"/>
                    </mask>
                    <path fill="#2D7DF8" d="M1.216 14c-.93-.004-1.436-.937-.963-1.805.628-1.152 1.277-2.291 1.914-3.437C3.617 6.152 5.065 3.546 6.51.94c.209-.376.453-.7.908-.743.478-.045.854.149 1.12.558.26.403.216.812-.007 1.215-.56 1.01-1.121 2.019-1.683 3.027-1.543 2.771-3.09 5.54-4.63 8.313-.227.41-.517.696-1.003.69" mask="url(#qga8cfdamb)"/>
                </g>
                <path fill="#2D7DF8" d="M2.893 7.493l3.076 2.915c.231.22.47.433.69.661.468.487.45 1.117-.033 1.575-.47.447-1.138.489-1.633.037C3.9 11.683 2.836 10.656 1.76 9.64 1.32 9.226.88 8.814.446 8.395c-.595-.574-.596-1.206.005-1.78 1.482-1.413 2.968-2.822 4.457-4.229.533-.504 1.191-.513 1.71-.038.513.469.514 1.133-.023 1.646-1.218 1.162-2.447 2.314-3.702 3.5M22.138 7.508l-1.999-1.88c-.589-.556-1.178-1.111-1.762-1.673-.326-.314-.47-.687-.313-1.123.16-.446.493-.72.98-.812.45-.085.793.107 1.097.395 1.367 1.293 2.707 2.614 4.111 3.87 1.025.916.968 1.575.004 2.435-1.406 1.254-2.741 2.579-4.112 3.869-.575.54-1.275.546-1.795.028-.485-.483-.462-1.107.077-1.622.799-.765 1.606-1.522 2.412-2.28.422-.396.85-.789 1.3-1.207" transform="translate(-393 -585) translate(393 585)"/>
            </g>
        </g>
    </g>
</svg>
