<svg xmlns="http://www.w3.org/2000/svg" width="1075" height="20" viewBox="0 0 1075 20">
    <g fill="none" fill-rule="evenodd">
        <g fill="#1D2129">
            <g transform="translate(-183 -261) translate(183 261)">
                <circle cx="10" cy="10" r="10"/>
                <circle cx="660" cy="10" r="10"/>
                <circle cx="334" cy="10" r="10"/>
                <circle cx="984" cy="10" r="10"/>
                <circle cx="172" cy="10" r="10"/>
                <circle cx="822" cy="10" r="10"/>
                <circle cx="496" cy="10" r="10"/>
                <circle cx="91" cy="10" r="10"/>
                <circle cx="741" cy="10" r="10"/>
                <circle cx="415" cy="10" r="10"/>
                <circle cx="1065" cy="10" r="10"/>
                <circle cx="253" cy="10" r="10"/>
                <circle cx="903" cy="10" r="10"/>
                <circle cx="577" cy="10" r="10"/>
                <circle cx="37" cy="10" r="10"/>
                <circle cx="687" cy="10" r="10"/>
                <circle cx="361" cy="10" r="10"/>
                <circle cx="1011" cy="10" r="10"/>
                <circle cx="199" cy="10" r="10"/>
                <circle cx="849" cy="10" r="10"/>
                <circle cx="523" cy="10" r="10"/>
                <circle cx="118" cy="10" r="10"/>
                <circle cx="768" cy="10" r="10"/>
                <circle cx="442" cy="10" r="10"/>
                <circle cx="280" cy="10" r="10"/>
                <circle cx="930" cy="10" r="10"/>
                <circle cx="604" cy="10" r="10"/>
                <circle cx="64" cy="10" r="10"/>
                <circle cx="714" cy="10" r="10"/>
                <circle cx="388" cy="10" r="10"/>
                <circle cx="1038" cy="10" r="10"/>
                <circle cx="226" cy="10" r="10"/>
                <circle cx="876" cy="10" r="10"/>
                <circle cx="550" cy="10" r="10"/>
                <circle cx="145" cy="10" r="10"/>
                <circle cx="795" cy="10" r="10"/>
                <circle cx="469" cy="10" r="10"/>
                <circle cx="307" cy="10" r="10"/>
                <circle cx="957" cy="10" r="10"/>
                <circle cx="631" cy="10" r="10"/>
            </g>
        </g>
    </g>
</svg>
