<svg xmlns="http://www.w3.org/2000/svg" width="321" height="321" viewBox="0 0 321 321">
    <g fill="none" fill-rule="evenodd">
        <g>
            <g>
                <path fill="#2D7DF8" d="M0 89L15 89 15 74 0 74zM0 104L15 104 15 89 0 89zM15 59L30 59 30 44 15 44z" transform="translate(-764 -1805) rotate(9 -11068.765 6039.685)"/>
                <path fill="#2D7DF8" d="M29 45L44 45 44 30 29 30z" transform="translate(-764 -1805) rotate(9 -11068.765 6039.685)"/>
                <path fill="#35E5C3" d="M42 89L57 89 57 74 42 74zM42 104L57 104 57 89 42 89zM57 118L72 118 72 103 57 103zM57 74L72 74 72 59 57 59z" transform="translate(-764 -1805) rotate(9 -11068.765 6039.685)"/>
                <path fill="#2D7DF8" d="M15 74L30 74 30 59 15 59zM59 30L74 30 74 15 59 15zM44 30L59 30 59 15 44 15zM59 178L74 178 74 163 59 163zM44 178L59 178 59 163 44 163zM15 134L30 134 30 119 15 119zM15 149L30 149 30 134 15 134z" transform="translate(-764 -1805) rotate(9 -11068.765 6039.685)"/>
                <path fill="#2D7DF8" d="M29 163L44 163 44 148 29 148zM0 119L15 119 15 104 0 104zM178 119L193 119 193 104 178 104zM178 104L193 104 193 89 178 89zM163 149L178 149 178 134 163 134zM148 163L163 163 163 148 148 148zM163 178L178 178 178 163 163 163zM178 193L193 193 193 178 178 178zM178 208L193 208 193 193 178 193z" transform="translate(-764 -1805) rotate(9 -11068.765 6039.685)"/>
                <path fill="#2D7DF8" d="M164 208L179 208 179 193 164 193zM193 207L208 207 208 192 193 192zM207 222L222 222 222 207 207 207z" transform="translate(-764 -1805) rotate(9 -11068.765 6039.685)"/>
                <path fill="#2D7DF8" d="M221 236L236 236 236 221 221 221zM236 250L251 250 251 235 236 235zM250 265L265 265 265 250 250 250zM193 193L208 193 208 178 193 178z" transform="translate(-764 -1805) rotate(9 -11068.765 6039.685)"/>
                <path fill="#2D7DF8" d="M207 207L222 207 222 192 207 192z" transform="translate(-764 -1805) rotate(9 -11068.765 6039.685)"/>
                <path fill="#2D7DF8" d="M221 221L236 221 236 206 221 206zM236 236L251 236 251 221 236 221z" transform="translate(-764 -1805) rotate(9 -11068.765 6039.685)"/>
                <path fill="#2D7DF8" d="M250 250L265 250 265 235 250 235zM264 265L279 265 279 250 264 250z" transform="translate(-764 -1805) rotate(9 -11068.765 6039.685)"/>
                <path fill="#2D7DF8" d="M264 250L279 250 279 235 264 235zM193 178L208 178 208 163 193 163z" transform="translate(-764 -1805) rotate(9 -11068.765 6039.685)"/>
                <path fill="#2D7DF8" d="M207 192L222 192 222 177 207 177zM221 207L236 207 236 192 221 192zM236 221L251 221 251 206 236 206z" transform="translate(-764 -1805) rotate(9 -11068.765 6039.685)"/>
                <path fill="#2D7DF8" d="M250 235L265 235 265 220 250 220zM193 221L208 221 208 206 193 206zM207 236L222 236 222 221 207 221z" transform="translate(-764 -1805) rotate(9 -11068.765 6039.685)"/>
                <path fill="#2D7DF8" d="M221 250L236 250 236 235 221 235zM236 264L251 264 251 249 236 249zM250 279L265 279 265 264 250 264z" transform="translate(-764 -1805) rotate(9 -11068.765 6039.685)"/>
                <path fill="#2D7DF8" d="M264 279L279 279 279 264 264 264zM163 134L178 134 178 119 163 119zM119 178L134 178 134 163 119 163zM134 178L149 178 149 163 134 163zM119 30L134 30 134 15 119 15zM134 30L149 30 149 15 134 15zM163 74L178 74 178 59 163 59zM163 59L178 59 178 44 163 44zM148 45L163 45 163 30 148 30zM178 89L193 89 193 74 178 74zM104 15L119 15 119 0 104 0zM89 15L104 15 104 0 89 0zM74 15L89 15 89 0 74 0zM104 193L119 193 119 178 104 178zM89 193L104 193 104 178 89 178zM74 193L89 193 89 178 74 178z" transform="translate(-764 -1805) rotate(9 -11068.765 6039.685)"/>
            </g>
        </g>
    </g>
</svg>
