<svg xmlns="http://www.w3.org/2000/svg" width="314" height="344" viewBox="0 0 314 344">
    <g fill="none" fill-rule="evenodd">
        <g>
            <g>
                <path fill="#35E5C3" d="M.701 38.068L10.596 47.963 47.701 10.858 37.808.963zM220.349 11.222L257.454 48.328 267.349 38.433 230.244 1.328z" transform="translate(-278 -1307) rotate(-9 8710.508 -1096.49)"/>
                <g>
                    <path stroke="#2D7DF8" stroke-width="6.157" d="M.217 283.932L225.505 283.932 225.505.463.217.463zM24.025 283.932L24.025 210.509M47.266 283.932L47.266 210.509M70.506 283.932L70.506 210.509M93.747 283.932L93.747 210.509M116.988 283.932L116.988 210.509M140.228 283.932L140.228 210.509M163.469 283.932L163.469 210.509M186.71 283.932L186.71 210.509" transform="translate(-278 -1307) rotate(-9 8710.508 -1096.49) translate(24.99 17.425)"/>
                    <path fill="#35E5C3" d="M50.225 53.852c0 5.907-4.789 10.696-10.697 10.696-5.907 0-10.696-4.79-10.696-10.696 0-5.907 4.789-10.696 10.696-10.696 5.908 0 10.697 4.789 10.697 10.696" transform="translate(-278 -1307) rotate(-9 8710.508 -1096.49) translate(24.99 17.425)"/>
                    <path stroke="#35E5C3" stroke-width="3.361" d="M28.832 80.517L196.891 80.517M28.832 106.27L196.891 106.27M28.832 122.239L196.891 122.239M28.832 138.207L196.891 138.207M28.832 154.177L196.891 154.177" transform="translate(-278 -1307) rotate(-9 8710.508 -1096.49) translate(24.99 17.425)"/>
                </g>
            </g>
        </g>
    </g>
</svg>
