<svg xmlns="http://www.w3.org/2000/svg" xmlns:xlink="http://www.w3.org/1999/xlink" width="159" height="158" viewBox="0 0 159 158">
    <defs>
        <path id="o35ygosfva" d="M0 0.237L158.622 0.237 158.622 147.805 0 147.805z"/>
    </defs>
    <g fill="none" fill-rule="evenodd">
        <g>
            <g>
                <g transform="translate(-1008 -2498) translate(1008 2498) translate(0 9.518)">
                    <mask id="p79e6gi3kb" fill="#fff">
                        <use xlink:href="#o35ygosfva"/>
                    </mask>
                    <path stroke="#2D7DF8" stroke-width="3.01" d="M0 147.805L158.622 147.805 158.622 0.237" mask="url(#p79e6gi3kb)"/>
                </g>
                <path fill="#35E5C3" d="M18.376 146.289L36.753 146.289 36.753 127.912 18.376 127.912z" transform="translate(-1008 -2498) translate(1008 2498)"/>
                <path fill="#2D7DF8" d="M36.753 146.289L55.129 146.289 55.129 127.912 36.753 127.912z" transform="translate(-1008 -2498) translate(1008 2498)"/>
                <path fill="#35E5C3" d="M55.129 146.289L73.506 146.289 73.506 127.912 55.129 127.912z" transform="translate(-1008 -2498) translate(1008 2498)"/>
                <path fill="#2D7DF8" d="M73.506 146.289L91.882 146.289 91.882 127.912 73.506 127.912z" transform="translate(-1008 -2498) translate(1008 2498)"/>
                <path fill="#35E5C3" d="M91.882 146.289L110.258 146.289 110.258 127.912 91.882 127.912z" transform="translate(-1008 -2498) translate(1008 2498)"/>
                <path fill="#2D7DF8" d="M110.258 146.289L128.635 146.289 128.635 127.912 110.258 127.912z" transform="translate(-1008 -2498) translate(1008 2498)"/>
                <path fill="#35E5C3" d="M128.635 146.289L147.011 146.289 147.011 127.912 128.635 127.912z" transform="translate(-1008 -2498) translate(1008 2498)"/>
                <path fill="#2D7DF8" d="M36.753 127.913L55.129 127.913 55.129 109.536 36.753 109.536z" transform="translate(-1008 -2498) translate(1008 2498)"/>
                <path fill="#35E5C3" d="M55.129 127.913L73.506 127.913 73.506 109.536 55.129 109.536z" transform="translate(-1008 -2498) translate(1008 2498)"/>
                <path fill="#2D7DF8" d="M73.506 127.913L91.882 127.913 91.882 109.536 73.506 109.536z" transform="translate(-1008 -2498) translate(1008 2498)"/>
                <path fill="#35E5C3" d="M91.882 127.913L110.258 127.913 110.258 109.536 91.882 109.536z" transform="translate(-1008 -2498) translate(1008 2498)"/>
                <path fill="#2D7DF8" d="M110.258 127.913L128.635 127.913 128.635 109.536 110.258 109.536z" transform="translate(-1008 -2498) translate(1008 2498)"/>
                <path fill="#35E5C3" d="M128.635 127.913L147.011 127.913 147.011 109.536 128.635 109.536zM55.129 109.536L73.506 109.536 73.506 91.16 55.129 91.16z" transform="translate(-1008 -2498) translate(1008 2498)"/>
                <path fill="#2D7DF8" d="M73.506 109.536L91.882 109.536 91.882 91.16 73.506 91.16z" transform="translate(-1008 -2498) translate(1008 2498)"/>
                <path fill="#35E5C3" d="M91.882 109.536L110.258 109.536 110.258 91.16 91.882 91.16z" transform="translate(-1008 -2498) translate(1008 2498)"/>
                <path fill="#2D7DF8" d="M110.258 109.536L128.635 109.536 128.635 91.16 110.258 91.16z" transform="translate(-1008 -2498) translate(1008 2498)"/>
                <path fill="#35E5C3" d="M128.635 109.536L147.011 109.536 147.011 91.16 128.635 91.16z" transform="translate(-1008 -2498) translate(1008 2498)"/>
                <path fill="#2D7DF8" d="M73.506 91.16L91.882 91.16 91.882 72.783 73.506 72.783z" transform="translate(-1008 -2498) translate(1008 2498)"/>
                <path fill="#35E5C3" d="M91.882 91.16L110.258 91.16 110.258 72.783 91.882 72.783z" transform="translate(-1008 -2498) translate(1008 2498)"/>
                <path fill="#2D7DF8" d="M110.258 91.16L128.635 91.16 128.635 72.783 110.258 72.783z" transform="translate(-1008 -2498) translate(1008 2498)"/>
                <path fill="#35E5C3" d="M128.635 91.16L147.011 91.16 147.011 72.783 128.635 72.783zM91.882 72.783L110.258 72.783 110.258 54.407 91.882 54.407z" transform="translate(-1008 -2498) translate(1008 2498)"/>
                <path fill="#2D7DF8" d="M110.258 72.783L128.635 72.783 128.635 54.407 110.258 54.407z" transform="translate(-1008 -2498) translate(1008 2498)"/>
                <path fill="#35E5C3" d="M128.635 72.783L147.011 72.783 147.011 54.407 128.635 54.407z" transform="translate(-1008 -2498) translate(1008 2498)"/>
                <path fill="#2D7DF8" d="M110.258 54.407L128.635 54.407 128.635 36.03 110.258 36.03z" transform="translate(-1008 -2498) translate(1008 2498)"/>
                <path fill="#35E5C3" d="M128.635 54.407L147.011 54.407 147.011 36.03 128.635 36.03zM128.635 36.03L147.011 36.03 147.011 17.654 128.635 17.654z" transform="translate(-1008 -2498) translate(1008 2498)"/>
                <g stroke="#2D7DF8" stroke-width="1.26">
                    <path d="M5.785.562L5.785 5.745M.271 1.534L2.043 6.404" transform="translate(-1008 -2498) translate(1008 2498) translate(122.85 .068)"/>
                </g>
                <path stroke="#2D7DF8" stroke-width="1.26" d="M118.272 4.402L121.603 8.372M114.673 8.691L119.161 11.282M112.758 13.953L117.862 14.852M112.758 19.552L117.862 18.652M114.673 24.813L119.161 22.222M118.272 29.103L121.603 25.133M123.121 31.902L124.893 27.033M128.635 32.874L128.635 27.692M134.149 31.902L132.377 27.033M138.999 29.103L135.667 25.133M142.597 24.813L138.11 22.222M144.512 19.552L139.409 18.652M144.512 13.953L139.409 14.852M142.597 8.691L138.11 11.282M138.999 4.402L135.667 8.372M134.149 1.602L132.377 6.472" transform="translate(-1008 -2498) translate(1008 2498)"/>
                <path fill="#FFF" d="M70.805 146.289L73.505 146.289 73.505 93.901 70.805 93.901zM89.182 146.289L91.882 146.289 91.882 76.688 89.182 76.688zM107.558 146.289L110.258 146.289 110.258 58.486 107.558 58.486zM125.934 146.289L128.635 146.289 128.635 41.543 125.934 41.543zM52.429 146.289L55.129 146.289 55.129 112.076 52.429 112.076zM34.053 146.289L36.753 146.289 36.753 130.67 34.053 130.67z" transform="translate(-1008 -2498) translate(1008 2498)"/>
            </g>
        </g>
    </g>
</svg>
