<svg xmlns="http://www.w3.org/2000/svg" xmlns:xlink="http://www.w3.org/1999/xlink" width="181" height="146" viewBox="0 0 181 146">
    <defs>
        <path id="85w02qge2a" d="M0 144.9L181.002 144.9 181.002 0.098 0 0.098z"/>
    </defs>
    <g fill="none" fill-rule="evenodd">
        <g>
            <g>
                <path fill="#35E5C3" d="M35.324 96.97L144.552 96.97 144.552 35.975 35.324 35.975z" transform="translate(-264 -2526) translate(264 2526)"/>
                <path fill="#35E5C3" d="M42.298 96.97L151.525 96.97 151.525 40.734 42.298 40.734z" transform="translate(-264 -2526) translate(264 2526)"/>
                <path stroke="#FFF" stroke-width="2.136" d="M42.298 96.97L151.525 96.97 151.525 40.734 42.298 40.734z" transform="translate(-264 -2526) translate(264 2526)"/>
                <g transform="translate(-264 -2526) translate(264 2526) translate(0 .532)">
                    <path stroke="#2D7DF8" stroke-width="3.01" d="M173.814 118.155H13.198c-3.139 0-5.683-2.544-5.683-5.683V13.296c0-3.14 2.544-5.683 5.683-5.683h160.616c3.138 0 5.683 2.544 5.683 5.683v99.176c0 3.139-2.545 5.683-5.683 5.683z"/>
                    <path stroke="#2D7DF8" stroke-width="3.01" d="M177.918 9.371l-7.902-7.322c-.68-.287-1.427-.446-2.212-.446H7.188c-3.138 0-5.683 2.544-5.683 5.682v99.177c0 1.071.296 2.074.812 2.928l6.94 7.172"/>
                    <mask id="2zsg65pvtb" fill="#fff">
                        <use xlink:href="#85w02qge2a"/>
                    </mask>
                    <path fill="#FFF" d="M77.724 137.525L109.289 137.525 109.289 118.155 77.724 118.155z" mask="url(#2zsg65pvtb)"/>
                    <path stroke="#2D7DF8" stroke-width="2.763" d="M77.724 137.525L109.289 137.525 109.289 118.155 77.724 118.155z" mask="url(#2zsg65pvtb)"/>
                    <path stroke="#2D7DF8" stroke-width="3.01" d="M62.597 143.395L124.414 143.395 124.414 137.525 62.597 137.525zM7.515 96.438L179.497 96.438" mask="url(#2zsg65pvtb)"/>
                    <path fill="#FFF" d="M69.686 53.895c0 3.837-3.11 6.947-6.946 6.947-3.837 0-6.948-3.11-6.948-6.947 0-3.836 3.111-6.947 6.948-6.947 3.836 0 6.946 3.11 6.946 6.947" mask="url(#2zsg65pvtb)"/>
                    <path stroke="#2D7DF8" stroke-width="3.01" d="M55.792 71.215L137.438 71.215M55.792 79.579L137.438 79.579M55.792 87.942L137.438 87.942" mask="url(#2zsg65pvtb)"/>
                    <path stroke="#2D7DF8" stroke-width="3.308" d="M155.83 22.056L165.612 22.056M141.742 22.056L151.525 22.056M127.655 22.056L137.438 22.056M20.832 22.056L30.615 22.056" mask="url(#2zsg65pvtb)"/>
                    <path fill="#2D7DF8" d="M98.202 107.59c0 2.593-2.102 4.696-4.696 4.696-2.593 0-4.696-2.103-4.696-4.696 0-2.594 2.103-4.696 4.696-4.696 2.594 0 4.696 2.102 4.696 4.696" mask="url(#2zsg65pvtb)"/>
                </g>
            </g>
        </g>
    </g>
</svg>
