<svg xmlns="http://www.w3.org/2000/svg" width="182" height="158" viewBox="0 0 182 158">
    <g fill="none" fill-rule="evenodd">
        <g>
            <g>
                <path fill="#35E5C3" d="M51.552 157.383L67.011 157.383 67.011 150.136 51.552 150.136zM105.907 157.383L121.367 157.383 121.367 150.136 105.907 150.136z" transform="translate(-1001 -67) translate(1001 67)"/>
                <path stroke="#2D7DF8" stroke-width="3.471" d="M79.857 113.903L92.702 113.903 92.702 52.681 79.857 52.681z" transform="translate(-1001 -67) translate(1001 67)"/>
                <g>
                    <path fill="#2D7DF8" d="M105.907 52.098c0 10.745-8.71 19.455-19.454 19.455-10.745 0-19.455-8.71-19.455-19.455 0-10.745 8.71-19.455 19.455-19.455 10.744 0 19.454 8.71 19.454 19.455" transform="translate(-1001 -67) translate(1001 67) translate(0 .583)"/>
                    <path stroke="#2D7DF8" stroke-width="3.471" d="M36.33 149.554L138.01 149.554 138.01 113.32 36.33 113.32zM36.331 124.017L138.01 124.017" transform="translate(-1001 -67) translate(1001 67) translate(0 .583)"/>
                    <path fill="#35E5C3" d="M0 29.213L14.429 29.213 14.429 14.783 0 14.783zM14.704 43.917L29.133 43.917 29.133 29.487 14.704 29.487zM14.566 14.646L28.996 14.646 28.996.217 14.566.217zM106.422 14.646L120.852 14.646 120.852.217 106.422.217zM130.794 79.814L145.224 79.814 145.224 65.385 130.794 65.385zM58.198 57.242L72.627 57.242 72.627 42.813 58.198 42.813zM138.198 43.242L152.627 43.242 152.627 28.813 138.198 28.813zM167.198 22.242L181.627 22.242 181.627 7.813 167.198 7.813zM43.768 43.848L58.198 43.848 58.198 29.418 43.768 29.418zM58.232 29.385L72.661 29.385 72.661 14.955 58.232 14.955zM29.27 29.35L43.7 29.35 43.7 14.921 29.27 14.921z" transform="translate(-1001 -67) translate(1001 67) translate(0 .583)"/>
                    <path fill="#2D7DF8" d="M59.282 113.32L71.303 113.32 71.303 106.086 59.282 106.086zM43.701 113.32L55.722 113.32 55.722 106.086 43.701 106.086z" transform="translate(-1001 -67) translate(1001 67) translate(0 .583)"/>
                </g>
            </g>
        </g>
    </g>
</svg>
