<svg xmlns="http://www.w3.org/2000/svg" width="195" height="132" viewBox="0 0 195 132">
    <g fill="none" fill-rule="evenodd">
        <g>
            <g>
                <path stroke="#35E5C3" stroke-width="9.299" d="M77.922 123.039S42.996 108.93 56.248 77.788c13.253-31.143 23.693 43.68-18.774 47.045C-4.99 128.198 61.814.263 61.814.263" transform="translate(-634 -2518) translate(635 2520)"/>
                <path stroke="#2D7DF8" stroke-width="3.398" d="M103.102 116.259L85.766 98.923 156.668 28.021 174.005 45.356zM177.397 41.964L160.061 24.628 167.463 17.226 184.799 34.562z" transform="translate(-634 -2518) translate(635 2520)"/>
                <path fill="#35E5C3" d="M76.89 125.135L99.211 119.154 82.871 102.813z" transform="translate(-634 -2518) translate(635 2520)"/>
                <path stroke="#2D7DF8" stroke-width="3.398" d="M76.89 125.135L99.211 119.154 82.871 102.813z" transform="translate(-634 -2518) translate(635 2520)"/>
                <path stroke="#2D7DF8" stroke-width="3.029" d="M94.434 107.591L165.337 36.688" transform="translate(-634 -2518) translate(635 2520)"/>
                <path fill="#35E5C3" d="M184.799 34.562l-17.336-17.336 6.095-6.096c.722-.721 1.891-.721 2.613 0l14.724 14.724c.72.721.72 1.89 0 2.612l-6.096 6.096z" transform="translate(-634 -2518) translate(635 2520)"/>
                <path stroke="#2D7DF8" stroke-width="3.398" d="M184.799 34.562l-17.336-17.336 6.095-6.096c.722-.721 1.891-.721 2.613 0l14.724 14.724c.72.721.72 1.89 0 2.612l-6.096 6.096z" transform="translate(-634 -2518) translate(635 2520)"/>
                <path stroke="#35E5C3" stroke-width="3.772" d="M.555 47.084L9.277 54.13 22.838 30.536M64.041 47.084L72.763 54.13 86.324 30.536" transform="translate(-634 -2518) translate(635 2520)"/>
            </g>
        </g>
    </g>
</svg>
