<?xml version="1.0" standalone="no"?>
<!DOCTYPE svg PUBLIC "-//W3C//DTD SVG 20010904//EN"
 "http://www.w3.org/TR/2001/REC-SVG-20010904/DTD/svg10.dtd">
<svg version="1.0" xmlns="http://www.w3.org/2000/svg"
 width="800.000000pt" height="800.000000pt" viewBox="0 0 800.000000 800.000000"
 preserveAspectRatio="xMidYMid meet">
<metadata>
Created by potrace 1.11, written by Peter Selinger 2001-2013
</metadata>
<g transform="translate(0.000000,800.000000) scale(0.100000,-0.100000)"
fill="#000000" stroke="none">
<path d="M1488 7205 c-3 -4 -46 -8 -95 -10 -111 -6 -142 -10 -228 -30 -39 -9
-74 -18 -80 -19 -5 -1 -16 -5 -22 -9 -7 -5 -13 -6 -13 -3 0 5 -117 -42 -185
-75 -61 -29 -170 -94 -191 -114 -6 -5 -22 -17 -34 -25 -68 -44 -260 -238 -260
-261 0 -5 -7 -12 -15 -15 -8 -4 -15 -10 -15 -14 0 -5 -20 -38 -44 -74 -55 -83
-117 -209 -145 -301 -13 -38 -25 -77 -28 -85 -7 -18 -9 -26 -16 -65 -3 -16
-10 -54 -16 -84 -6 -30 -13 -94 -16 -143 -3 -50 -7 -94 -11 -99 -3 -5 0 -9 6
-9 7 0 8 -6 1 -17 -5 -10 -5 -26 0 -40 5 -13 4 -25 -2 -28 -5 -4 -7 -11 -3
-16 3 -6 6 -32 5 -57 -2 -103 -2 -138 2 -165 2 -15 1 -30 -4 -33 -5 -2 -4 -15
0 -27 5 -12 5 -32 0 -44 -5 -13 -5 -23 0 -23 4 0 5 -23 1 -50 -4 -28 -3 -53 2
-56 5 -3 4 -11 -1 -18 -6 -7 -8 -16 -5 -19 4 -3 6 -25 5 -49 -2 -100 -2 -135
2 -161 2 -15 1 -30 -4 -33 -4 -2 -4 -15 0 -27 5 -12 5 -32 0 -44 -4 -12 -5
-25 0 -27 4 -3 5 -26 1 -51 -4 -25 -3 -48 2 -51 5 -3 4 -11 -1 -18 -6 -7 -8
-16 -5 -19 4 -3 6 -25 5 -49 -2 -100 -2 -135 2 -161 2 -15 1 -30 -4 -33 -5 -2
-4 -15 0 -27 5 -12 5 -32 0 -44 -5 -13 -5 -23 0 -23 4 0 5 -23 1 -50 -4 -28
-3 -53 2 -56 5 -3 4 -11 -1 -18 -6 -7 -8 -16 -5 -19 4 -3 6 -25 5 -49 -2 -100
-2 -135 2 -161 2 -15 1 -30 -4 -33 -5 -2 -4 -15 0 -27 5 -12 5 -32 0 -44 -4
-12 -5 -25 0 -27 4 -3 5 -26 1 -51 -4 -25 -3 -48 2 -51 5 -3 4 -11 -1 -18 -6
-7 -8 -16 -5 -19 4 -3 6 -25 5 -49 -2 -100 -2 -135 2 -161 2 -15 1 -30 -4 -33
-5 -2 -4 -15 0 -27 5 -12 5 -32 0 -44 -5 -13 -5 -23 0 -23 4 0 5 -23 1 -50 -4
-28 -3 -53 2 -56 5 -3 4 -11 -1 -18 -6 -7 -8 -16 -5 -19 4 -3 6 -25 5 -49 -2
-100 -2 -135 2 -161 2 -15 1 -30 -4 -33 -5 -2 -4 -15 0 -27 5 -12 5 -32 0 -44
-4 -12 -5 -25 0 -27 4 -3 5 -26 1 -51 -4 -25 -3 -48 2 -51 5 -3 4 -11 -1 -18
-6 -7 -8 -15 -5 -19 5 -5 8 -90 4 -112 -1 -5 -2 -13 -1 -18 1 -4 3 -33 6 -65
7 -81 15 -145 20 -151 1 -3 6 -22 9 -41 8 -48 39 -154 65 -218 25 -62 93 -205
102 -212 3 -3 22 -30 41 -60 93 -145 232 -284 388 -388 47 -31 87 -57 90 -57
3 0 21 -10 41 -23 20 -12 43 -22 52 -22 9 0 18 -4 21 -9 3 -4 34 -18 68 -31
35 -12 70 -25 78 -28 8 -3 18 -5 22 -4 4 1 20 -14 35 -34 147 -189 338 -343
547 -440 44 -20 84 -37 90 -38 6 -1 16 -4 21 -8 11 -7 139 -45 170 -51 11 -2
31 -7 45 -10 14 -3 45 -9 70 -13 59 -10 4589 -11 4660 -2 64 9 142 24 148 28
1 2 5 3 10 4 65 15 119 30 127 36 6 4 21 11 35 15 68 21 259 120 310 162 8 6
42 32 75 56 108 80 232 217 322 354 47 72 131 235 137 266 1 7 9 28 18 47 17
40 58 190 64 232 2 16 7 48 11 71 10 55 10 3402 0 3487 -16 129 -63 298 -117
416 -41 91 -129 244 -141 244 -5 0 -9 6 -9 13 0 16 -69 99 -158 190 -68 70
-241 207 -261 207 -6 0 -11 3 -11 8 0 4 -19 16 -43 26 -23 11 -49 25 -57 31
-52 39 -324 127 -428 139 -23 2 -46 16 -72 44 -22 22 -56 53 -77 69 -21 15
-40 30 -43 33 -10 11 -76 57 -90 64 -8 4 -33 18 -55 31 -107 65 -343 155 -404
155 -15 0 -31 3 -34 7 -9 8 -34 11 -171 17 -60 3 -111 7 -113 10 -3 2 -18 0
-34 -4 -16 -5 -29 -5 -29 0 0 5 -13 5 -30 0 -17 -5 -32 -5 -35 0 -3 5 -16 5
-30 0 -13 -5 -27 -6 -29 -1 -3 4 -26 5 -51 1 -25 -4 -48 -3 -50 1 -3 4 -19 4
-35 -1 -19 -5 -30 -5 -30 1 0 6 -5 7 -10 4 -14 -9 -108 -10 -116 -2 -3 3 -17
2 -30 -3 -13 -5 -26 -6 -29 0 -3 5 -18 5 -35 0 -17 -5 -32 -5 -35 0 -3 6 -16
5 -29 0 -13 -5 -26 -6 -29 -3 -7 6 -177 10 -177 3 0 -6 -110 -3 -116 3 -3 3
-19 1 -35 -3 -16 -5 -29 -5 -29 0 0 5 -13 5 -30 0 -17 -5 -32 -5 -35 0 -3 5
-16 5 -30 0 -13 -5 -27 -5 -29 -1 -3 5 -23 5 -44 1 -21 -4 -48 -3 -59 1 -11 4
-26 3 -33 -1 -7 -5 -23 -4 -36 0 -12 5 -25 6 -28 3 -9 -9 -56 -10 -56 -2 0 4
-12 4 -27 0 -16 -5 -37 -5 -48 -1 -11 4 -29 4 -40 0 -11 -4 -29 -4 -41 0 -11
5 -27 5 -34 0 -7 -4 -26 -4 -41 0 -16 5 -29 6 -29 2 0 -4 -13 -7 -30 -7 -16 0
-30 3 -30 7 0 4 -12 3 -27 -1 -16 -5 -37 -5 -48 -1 -11 4 -34 4 -52 -1 -18 -4
-35 -3 -38 1 -3 5 -19 5 -35 0 -19 -5 -30 -5 -30 1 0 6 -5 7 -10 4 -14 -9
-108 -10 -116 -2 -3 3 -17 2 -30 -3 -13 -5 -26 -6 -29 0 -3 5 -18 5 -35 0 -17
-5 -32 -5 -35 0 -3 6 -16 5 -29 0 -13 -5 -26 -6 -29 -3 -7 6 -177 10 -177 3 0
-7 -79 -4 -86 3 -3 3 -19 1 -35 -3 -18 -5 -29 -5 -29 1 0 6 -5 7 -10 4 -14 -9
-108 -10 -116 -2 -3 3 -17 2 -30 -3 -13 -5 -26 -6 -29 0 -3 5 -18 5 -35 0 -17
-5 -32 -5 -35 0 -3 6 -16 5 -29 0 -13 -5 -26 -6 -29 -3 -7 6 -177 10 -177 3 0
-6 -87 -3 -98 4 -4 2 -14 1 -22 -4 -7 -4 -23 -4 -36 0 -12 5 -25 6 -28 3 -9
-9 -56 -10 -56 -2 0 4 -12 4 -27 0 -16 -5 -37 -5 -48 -1 -11 4 -29 4 -40 0
-11 -4 -29 -4 -41 0 -11 5 -27 5 -34 0 -7 -4 -26 -4 -41 0 -16 5 -29 6 -29 2
0 -4 -13 -7 -30 -7 -16 0 -30 3 -30 7 0 4 -12 3 -27 -1 -16 -5 -37 -5 -47 -1
-11 3 -38 3 -62 0 -24 -4 -48 -3 -55 1 -6 4 -25 3 -40 -1 -16 -5 -29 -5 -29 0
0 5 -13 5 -30 0 -17 -5 -32 -5 -35 0 -3 5 -16 5 -30 0 -13 -5 -27 -6 -29 -1
-3 4 -26 5 -51 1 -25 -4 -48 -3 -50 1 -3 4 -18 4 -35 -1 -18 -5 -30 -5 -32 1
-2 6 -6 7 -10 4z m42 -165 c15 4 33 4 39 0 13 -7 59 -5 68 3 2 3 18 1 34 -3
16 -5 29 -6 29 -2 0 9 53 7 68 -2 7 -4 12 -4 12 1 0 9 52 9 66 0 6 -3 15 -2
22 2 13 8 76 5 99 -3 7 -3 13 -2 13 2 0 4 17 6 38 4 48 -4 95 -3 100 3 3 2 12
0 21 -5 10 -5 23 -5 31 0 7 4 23 4 36 0 12 -5 25 -6 28 -3 7 8 145 7 152 0 3
-2 21 -1 40 3 18 4 34 4 34 -1 0 -5 10 -5 23 0 12 5 31 5 42 1 11 -4 24 -5 29
-2 15 8 76 8 76 -1 0 -4 8 -4 17 2 10 5 26 5 39 1 12 -5 25 -6 28 -3 3 4 39 6
79 4 89 -2 78 -2 165 1 39 2 72 0 72 -4 0 -4 11 -4 23 1 13 5 30 6 37 1 7 -4
24 -4 39 0 14 4 36 3 49 -1 12 -5 22 -5 22 -1 0 4 16 7 35 7 19 0 35 -4 35 -8
0 -4 8 -4 17 2 10 5 26 5 39 1 12 -5 25 -6 28 -3 3 4 39 6 79 4 89 -2 78 -2
165 1 39 2 72 0 72 -4 0 -4 11 -4 23 1 13 5 30 6 37 1 7 -4 24 -4 39 0 14 4
36 3 49 -1 12 -5 22 -4 22 1 0 5 13 5 30 0 17 -5 30 -5 30 -2 0 4 17 6 38 4
48 -4 95 -3 100 3 3 2 12 0 21 -5 10 -5 23 -5 31 0 7 4 23 4 36 0 12 -5 25 -6
28 -3 7 8 145 7 152 0 3 -2 21 -1 40 3 18 4 34 4 34 -1 0 -5 11 -4 24 1 13 5
26 7 28 4 9 -8 67 -11 79 -4 6 4 25 4 40 0 16 -5 29 -6 29 -2 0 9 53 7 68 -2
7 -4 12 -4 12 1 0 9 52 9 66 0 6 -3 15 -2 22 2 13 8 76 5 99 -3 7 -3 13 -2 13
2 0 7 43 8 76 1 5 -1 11 -1 14 1 15 5 80 4 80 -2 0 -4 11 -4 23 1 13 5 30 6
37 1 7 -5 23 -5 34 0 12 4 30 4 41 0 11 -4 24 -5 29 -2 14 8 76 8 76 0 0 -4
11 -4 23 1 13 5 30 6 37 1 7 -4 25 -4 41 0 15 5 30 6 32 3 9 -8 55 -10 68 -3
6 4 25 4 40 0 16 -5 29 -5 29 -2 0 8 68 7 76 -1 3 -3 18 -2 33 3 15 4 35 4 44
-1 10 -6 18 -5 22 1 4 6 10 8 14 6 4 -3 40 -7 81 -10 122 -9 191 -22 300 -58
103 -33 252 -108 326 -165 l29 -22 -2145 -2 c-1180 -1 -2154 -3 -2165 -4 -11
-1 -45 -5 -76 -8 -30 -4 -62 -8 -70 -11 -8 -3 -30 -7 -50 -10 -93 -14 -336
-112 -444 -179 -96 -60 -199 -143 -283 -229 -65 -66 -169 -199 -193 -247 -8
-14 -17 -28 -20 -31 -18 -14 -123 -246 -134 -295 -2 -11 -13 -50 -24 -88 -11
-37 -23 -84 -26 -105 -4 -20 -9 -50 -13 -67 -3 -16 -7 -795 -8 -1730 -3 -1788
-4 -1747 40 -1925 9 -36 18 -69 19 -75 10 -34 19 -63 26 -80 16 -40 53 -130
58 -143 5 -12 -39 9 -127 61 -177 104 -372 324 -464 521 -40 84 -86 214 -91
256 -2 14 -9 47 -15 75 -17 76 -27 281 -15 294 3 2 0 10 -6 17 -7 8 -7 14 0
18 6 4 7 15 1 30 -4 12 -5 29 0 36 4 7 5 23 0 34 -4 12 -4 30 0 42 5 11 5 27
0 34 -4 7 -4 24 0 39 4 14 4 35 0 46 -4 11 -4 29 0 41 5 11 5 26 1 33 -5 7 -5
29 -1 50 4 21 3 47 -1 59 -5 12 -4 24 2 27 5 4 7 11 3 16 -3 6 -6 32 -5 57 2
103 2 138 -2 165 -2 15 -1 30 4 33 4 2 4 15 0 27 -5 12 -5 32 0 45 5 12 5 22
1 22 -5 0 -6 23 -2 50 4 28 2 54 -3 57 -5 3 -5 9 1 15 6 6 7 19 2 33 -4 12 -5
28 0 35 4 7 5 23 0 34 -4 12 -4 30 0 42 5 11 5 27 0 34 -4 7 -4 24 0 39 4 14
4 35 0 46 -4 11 -4 29 0 41 5 11 5 26 1 33 -5 7 -5 29 -1 50 4 21 3 47 -1 59
-5 12 -4 24 2 27 5 4 7 11 3 16 -3 6 -6 32 -5 57 2 103 2 138 -2 165 -2 15 -1
30 4 33 4 2 4 15 0 27 -5 12 -5 32 0 45 5 12 5 22 1 22 -5 0 -6 23 -2 50 4 28
2 54 -3 57 -5 3 -5 9 1 15 6 6 7 19 2 33 -4 12 -5 28 0 35 4 7 5 23 0 34 -4
12 -4 30 0 42 5 11 5 27 0 34 -4 7 -4 24 0 39 4 14 4 35 0 46 -4 11 -4 29 0
41 5 11 5 26 1 33 -5 7 -5 29 -1 50 4 21 3 47 -1 59 -5 12 -4 24 2 27 5 4 7
11 3 16 -3 6 -6 32 -5 57 2 103 2 138 -2 165 -2 15 -1 30 4 33 4 2 4 15 0 27
-5 12 -5 32 0 45 5 12 5 22 1 22 -5 0 -6 23 -2 50 4 28 2 54 -3 57 -5 3 -5 9
1 15 7 7 7 19 2 33 -5 13 -7 25 -5 27 2 2 6 51 9 108 3 58 7 112 9 120 7 28
19 110 18 115 -1 3 6 19 14 35 9 17 13 30 11 30 -3 0 -1 12 5 28 6 15 12 35
14 44 7 35 96 205 145 280 28 42 90 116 138 165 96 96 106 106 184 158 29 19
58 38 63 42 49 37 264 126 330 136 17 3 37 8 45 11 26 9 92 18 169 21 40 2 76
6 79 9 2 3 12 2 20 -3 8 -5 27 -5 42 -1z"/>
</g>
</svg>
