<svg xmlns="http://www.w3.org/2000/svg" width="26" height="45" viewBox="0 0 26 45">
    <g fill="none" fill-rule="evenodd">
        <g fill="#2D7DF8">
            <g>
                <path d="M0 44.139L6.306 44.139 6.306 37.833 0 37.833zM6.306 37.833L12.611 37.833 12.611 31.528 6.306 31.528zM12.611 31.528L18.917 31.528 18.917 25.222 12.611 25.222zM18.917 25.222L25.222 25.222 25.222 18.916 18.917 18.916zM12.611 18.916L18.917 18.916 18.917 12.611 12.611 12.611zM6.306 12.611L12.611 12.611 12.611 6.306 6.306 6.306zM0 6.306L6.306 6.306 6.306 0 0 0z" transform="translate(-526 -2557) translate(526 2557)"/>
            </g>
        </g>
    </g>
</svg>
