<svg xmlns="http://www.w3.org/2000/svg" width="1740" height="99" viewBox="0 0 1740 99">
    <g fill="none" fill-rule="evenodd">
        <g fill="#FFF">
            <g>
                <g>
                    <path d="M822.374 0L822.374 33 789.5 33 789.5 66 756.625 66 756.625 33 723.749 33 723.749 0 690.874 0 690.874 33 657.999 33 657.999 66 625.125 66 592.249 66 559.374 66 559.374 33 526.5 33 526.5 0 460.75 0 460.75 33 427.875 33 427.875 66 395 66 395 99 427.875 99 460.75 99 493.625 99 526.5 99 559.374 99 592.249 99 625.125 99 657.999 99 690.874 99 723.749 99 756.625 99 789.5 99 822.374 99 855.249 99 888.124 99 921 99 921 66 888.124 66 855.249 66 855.249 33 855.249 0zM131.636 0L131.636 33 98.727 33 98.727 66 65.818 66 32.909 66 0 66 0 99 32.909 99 65.818 99 98.727 99 131.636 99 164.545 99 197.454 99 230.363 99 263.273 99 296.182 99 329.09 99 362 99 362 66 329.09 66 329.09 33 296.182 33 263.273 33 263.273 66 230.363 66 230.363 33 197.454 33 197.454 0zM0 33L33 33 33 0 0 0z" transform="translate(1 -1060) translate(-1 1060)"/>
                    <path d="M66 33L99 33 99 0 66 0zM330 0L330 32.5 362.5 32.5 362.5 65 395 65 395 32.5 395 0z" transform="translate(1 -1060) translate(-1 1060)"/>
                </g>
                <g>
                    <path d="M822.374 0L822.374 33 789.5 33 789.5 66 756.625 66 756.625 33 723.749 33 723.749 0 690.874 0 690.874 33 657.999 33 657.999 66 625.125 66 592.249 66 559.374 66 559.374 33 526.5 33 526.5 0 460.75 0 460.75 33 427.875 33 427.875 66 395 66 395 99 427.875 99 460.75 99 493.625 99 526.5 99 559.374 99 592.249 99 625.125 99 657.999 99 690.874 99 723.749 99 756.625 99 789.5 99 822.374 99 855.249 99 888.124 99 921 99 921 66 888.124 66 855.249 66 855.249 33 855.249 0zM131.636 0L131.636 33 98.727 33 98.727 66 65.818 66 32.909 66 0 66 0 99 32.909 99 65.818 99 98.727 99 131.636 99 164.545 99 197.454 99 230.363 99 263.273 99 296.182 99 329.09 99 362 99 362 66 329.09 66 329.09 33 296.182 33 263.273 33 263.273 66 230.363 66 230.363 33 197.454 33 197.454 0zM0 33L33 33 33 0 0 0z" transform="translate(1 -1060) translate(-1 1060) translate(819)"/>
                    <path d="M66 33L99 33 99 0 66 0zM330 0L330 32.5 362.5 32.5 362.5 65 395 65 395 32.5 395 0z" transform="translate(1 -1060) translate(-1 1060) translate(819)"/>
                </g>
            </g>
        </g>
    </g>
</svg>
