<svg xmlns="http://www.w3.org/2000/svg" xmlns:xlink="http://www.w3.org/1999/xlink" viewBox="0 0 551 410">
    <defs>
        <path id="qfnj7kz14a" d="M0 409.5L548.726 409.5 548.726 0.113 0 0.113z" />
    </defs>
    <g fill="none" fill-rule="evenodd">
        <g>
            <g>
                <g stroke="#FFF" stroke-width="2.561">
                    <path d="M0.36 92.807L69.295 92.807 69.295 23.872 0.36 23.872z"
                        transform="translate(-712 -198) translate(713 198) translate(.9 262.8)" />
                    <path d="M69.294 92.807L93.07 69.032 93.07 0.096 24.136 0.096 0.36 23.872"
                        transform="translate(-712 -198) translate(713 198) translate(.9 262.8)" />
                </g>
                <path stroke="#FFF" stroke-width="2.561" d="M70.2 286.2L93.6 262.8"
                    transform="translate(-712 -198) translate(713 198)" />
                <path stroke="#FFF" stroke-width="1.281" d="M81.9 170.1L116.1 170.1 116.1 135.9 81.9 135.9z"
                    transform="translate(-712 -198) translate(713 198)" />
                <path stroke="#FFF" stroke-width="1.281"
                    d="M116.029 170.1L127.8 158.329 127.8 124.2 93.672 124.2 81.9 135.971M116.1 135.9L127.8 124.2"
                    transform="translate(-712 -198) translate(713 198)" />
                <path stroke="#FFF" stroke-width="1.041" d="M375.3 247.5L403.2 247.5 403.2 219.6 375.3 219.6z"
                    transform="translate(-712 -198) translate(713 198)" />
                <path stroke="#FFF" stroke-width="1.041"
                    d="M403.406 247.5L413.1 237.807 413.1 209.7 384.994 209.7 375.3 219.394M403.2 219.6L413.1 209.7"
                    transform="translate(-712 -198) translate(713 198)" />
                <path stroke="#35E5C3" stroke-width=".789"
                    d="M81.9 342.9L170.064 342.9 228.6 284.4M347.4 373.5L403.099 373.5 548.1 228.6 412.745 228.6M261.9 152.995L261.9 74.7 393.3 74.7 393.3 209.7"
                    transform="translate(-712 -198) translate(713 198)" />
                <path fill="#FFF"
                    d="M209.7 241.2L228.6 241.2 228.6 220.5 209.7 220.5zM244.8 241.2L263.7 241.2 263.7 220.5 244.8 220.5z"
                    transform="translate(-712 -198) translate(713 198)" />
                <path fill="#FFF"
                    d="M238.5 223.2L263.7 223.2 263.7 219.6 238.5 219.6zM209.7 254.7L264.6 254.7 264.6 251.1 209.7 251.1zM90 155.7L96.3 155.7 96.3 148.5 90 148.5zM101.7 155.7L108 155.7 108 148.5 101.7 148.5z"
                    transform="translate(-712 -198) translate(713 198)" />
                <path fill="#FFF"
                    d="M99.9 149.4L108 149.4 108 148.5 99.9 148.5zM90 159.3L108 159.3 108 158.4 90 158.4zM382.5 234L387 234 387 229.5 382.5 229.5zM391.5 234L396 234 396 229.5 391.5 229.5z"
                    transform="translate(-712 -198) translate(713 198)" />
                <path fill="#FFF"
                    d="M389.7 230.363L396 230.363 396 229.537 389.7 229.537zM382.5 237.564L395.1 237.564 395.1 236.736 382.5 236.736zM297.9 387.9L306 387.9 306 378.9 297.9 378.9zM314.1 387.9L322.2 387.9 322.2 378.9 314.1 378.9z"
                    transform="translate(-712 -198) translate(713 198)" />
                <path fill="#FFF"
                    d="M311.4 380.7L322.2 380.7 322.2 378.9 311.4 378.9zM297.9 394.2L322.2 394.2 322.2 392.4 297.9 392.4zM15.3 324L29.7 324 29.7 308.7 15.3 308.7zM41.4 324L55.8 324 55.8 308.7 41.4 308.7z"
                    transform="translate(-712 -198) translate(713 198)" />
                <path fill="#FFF"
                    d="M36.9 310.5L55.8 310.5 55.8 307.8 36.9 307.8zM15.3 333.9L55.8 333.9 55.8 331.2 15.3 331.2z"
                    transform="translate(-712 -198) translate(713 198)" />
                <path stroke="#FFF" stroke-width="1.8"
                    d="M262.35 53.1L262.35 60.3M254.7 54.9L257.4 61.2M248.4 58.5L252.9 63.9M243 63.9L249.3 67.5M240.3 71.1L247.5 72M240.3 78.3L247.5 77.4M243 85.5L249.3 81.9M248.4 91.8L252.9 86.4M254.7 95.4L257.4 89.1M262.35 96.3L262.35 89.1M270 95.4L267.3 89.1M276.3 91.8L271.8 86.4M280.8 85.5L274.5 81.9M283.5 78.3L276.3 77.4M283.5 71.1L276.3 72M280.8 63.9L274.5 67.5M276.3 58.5L271.8 63.9M270 54.9L267.3 61.2"
                    transform="translate(-712 -198) translate(713 198)" />
                <path stroke="#FFF" stroke-width=".815"
                    d="M438.3 149.4L454.5 149.4 454.5 133.2 438.3 133.2zM454.5 149.4L470.7 149.4 470.7 133.2 454.5 133.2zM438.3 133.2L454.5 133.2 454.5 117 438.3 117zM454.5 165.6L470.7 165.6 470.7 149.4 454.5 149.4z"
                    transform="translate(-712 -198) translate(713 198)" />
                <path fill="#FFF"
                    d="M448.2 294.3L463.5 294.3 463.5 279 448.2 279zM463.5 309.6L478.8 309.6 478.8 294.3 463.5 294.3zM463.5 278.1L478.8 278.1 478.8 262.8 463.5 262.8zM510.3 324L525.6 324 525.6 308.7 510.3 308.7zM495 309.6L510.3 309.6 510.3 294.3 495 294.3zM510.3 294.3L525.6 294.3 525.6 279 510.3 279zM479.7 294.3L495 294.3 495 279 479.7 279zM397.8 45.9L404.1 45.9 404.1 39.6 397.8 39.6zM404.1 52.2L410.4 52.2 410.4 45.9 404.1 45.9zM434.7 45.9L441 45.9 441 39.6 434.7 39.6zM441 52.2L447.3 52.2 447.3 45.9 441 45.9zM404.1 39.6L410.4 39.6 410.4 33.3 404.1 33.3zM423 96.3L429.3 96.3 429.3 90 423 90zM416.7 74.7L423 74.7 423 68.4 416.7 68.4zM416.7 33.3L423 33.3 423 27 416.7 27zM423 68.4L429.3 68.4 429.3 62.1 423 62.1zM410.4 68.4L416.7 68.4 416.7 62.1 410.4 62.1z"
                    transform="translate(-712 -198) translate(713 198)" />
                <path stroke="#35E5C3" stroke-width=".789"
                    d="M108.984 122.882c0-67.598 54.76-122.398 122.312-122.398 50.537 0 93.916 30.672 112.56 74.428" />

                <path fill="#FFF"
                    d="M141.997 273.856L148.272 273.856 148.272 267.576 141.997 267.576zM111.141 304.734L117.416 304.734 117.416 298.455 111.141 298.455zM157.905 289.776L164.18 289.776 164.18 283.497 157.905 283.497z" />
                <path stroke="#35E5C3" stroke-width=".789" d="M306.522 267.499L403.893 267.499 322.157 349.293" />
                <path stroke="#FFF" stroke-width="3.703"
                    d="M187.94 286.847L287.188 286.847 287.188 187.529 187.94 187.529z" />
                <path stroke="#FFF" stroke-width="3.703"
                    d="M287.188 286.847L321.418 252.592 321.418 153.275 222.171 153.275 187.94 187.529M287.188 187.529L321.418 153.274" />
                <path stroke="#FFF" stroke-width="1.64"
                    d="M288.37 408.728L332.325 408.728 332.325 364.741 288.37 364.741z" />
                <path stroke="#FFF" stroke-width="1.64"
                    d="M332.325 408.728L347.486 393.557 347.486 349.57 303.531 349.57 288.37 364.741M347.485 349.57L332.325 364.741" />

            </g>
        </g>
    </g>
</svg>