<svg xmlns="http://www.w3.org/2000/svg" xmlns:xlink="http://www.w3.org/1999/xlink" width="53" height="44" viewBox="0 0 53 44">
    <defs>
        <path id="u2sw8w9q3a" d="M0 0L53 0 53 44 0 44z"/>
    </defs>
    <g fill="none" fill-rule="evenodd">
        <g>
            <g transform="translate(-1021 -3692) translate(1021 3692)">
                <mask id="916jwm2s8b" fill="#fff">
                    <use xlink:href="#u2sw8w9q3a"/>
                </mask>
                <path fill="#FFF" d="M26.188 31.857l-1.739 7.183.228.118 4.285-6.156-2.774-1.145m-3.779 8.371c.089-.01.177-.022.265-.033.686-2.833 1.336-5.677 2.081-8.495.193-.73.564-1.487 1.057-2.05C32.057 22.52 38.34 15.425 44.61 8.319c.365-.414.72-.838 1.078-1.257l-.225-.204-27.27 20.919 4.216 12.451M2.681 20.805c4.689 1.895 8.97 3.584 13.21 5.37.998.419 1.672.292 2.51-.356 7.949-6.149 15.93-12.255 23.9-18.373l4.764-3.652-.128-.233L2.68 20.805M51.155 3.607l-.294-.17-23.963 27.138 19.011 7.662 5.246-34.63M30.358 33.546c-2.213 3.18-4.341 6.268-6.51 9.327-.318.447-.829.755-1.25 1.127-.306-.47-.723-.9-.9-1.415-1.473-4.252-2.947-8.504-4.313-12.791-.396-1.243-1.028-1.955-2.242-2.424-4.624-1.786-9.214-3.663-13.801-5.544-.498-.204-.897-.653-1.342-.989.423-.347.792-.833 1.275-1.022C17.96 13.285 34.654 6.78 51.35.279c1.518-.59 1.825-.294 1.571 1.375-1.834 12.093-3.666 24.188-5.484 36.285-.335 2.23-.436 2.316-2.45 1.503l-14.628-5.896" mask="url(#916jwm2s8b)"/>
            </g>
        </g>
    </g>
</svg>
