<svg xmlns="http://www.w3.org/2000/svg" xmlns:xlink="http://www.w3.org/1999/xlink" width="63" height="53" viewBox="0 0 63 53">
    <defs>
        <path id="g4shysgq4a" d="M0 52.125L62.507 52.125 62.507 0 0 0z"/>
    </defs>
    <g fill="none" fill-rule="evenodd">
        <g>
            <g transform="translate(-567 -224) translate(567 224)">
                <path stroke="#35E5C3" stroke-width="1.475" d="M11.21 45.909h34.165c5.783 0 10.471-4.689 10.471-10.472V11.21c0-5.783-4.688-10.471-10.471-10.471H11.209C5.426.738.738 5.426.738 11.209v24.228c0 5.783 4.688 10.472 10.471 10.472z"/>
                <path fill="#FFF" d="M16.489 50.744h34.165c5.783 0 10.472-4.688 10.472-10.472V16.045c0-5.784-4.689-10.472-10.472-10.472H16.489c-5.784 0-10.472 4.688-10.472 10.472v24.227c0 5.784 4.688 10.472 10.472 10.472"/>
                <path stroke="#2D7DF8" stroke-width="2.763" d="M16.489 50.744h34.165c5.783 0 10.472-4.688 10.472-10.472V16.045c0-5.784-4.689-10.472-10.472-10.472H16.489c-5.784 0-10.472 4.688-10.472 10.472v24.227c0 5.784 4.688 10.472 10.472 10.472z"/>
                <mask id="3ywzjv6bwb" fill="#fff">
                    <use xlink:href="#g4shysgq4a"/>
                </mask>
                <path fill="#2D7DF8" d="M15.13 29.258L27.269 29.258 27.269 15.933 15.13 15.933zM38.014 29.258L50.154 29.258 50.154 15.933 38.014 15.933z" mask="url(#3ywzjv6bwb)"/>
                <path fill="#2D7DF8" d="M34.023 18.037L50.154 18.037 50.154 15.933 34.023 15.933zM22.543 40.931h-4.732c-1.48 0-2.681-1.2-2.681-2.68 0-1.481 1.2-2.681 2.68-2.681h4.733c1.481 0 2.681 1.2 2.681 2.68 0 1.481-1.2 2.681-2.68 2.681" mask="url(#3ywzjv6bwb)"/>
            </g>
        </g>
    </g>
</svg>
